<?xml version="1.0" encoding="utf-8"?>
<!-- Generator: Adobe Illustrator 25.0.0, SVG Export Plug-In . SVG Version: 6.00 Build 0)  -->
<svg version="1.1" xmlns="http://www.w3.org/2000/svg" xmlns:xlink="http://www.w3.org/1999/xlink" x="0px" y="0px"
	 viewBox="0 0 600 600" style="enable-background:new 0 0 600 600;" xml:space="preserve">
<style type="text/css">
	.st0{fill:#FFFFFF;}
	.st1{fill:#101010;}
</style>
<g id="Calque_2">
	<rect class="st0" width="600" height="600"/>
</g>
<g id="Calque_1">
	<g>
		<path class="st1" d="M65.8,274.5c9.1,0,15.8,1.8,20,5.5c4.3,3.7,6.5,8.5,6.5,14.4c0,2-0.3,4.2-0.8,6.7c-1.3,5.5-3.6,10.3-7.1,14.4
			c-3.5,4.1-7.7,7.2-12.8,9.5c-5,2.2-10.4,3.3-16.3,3.3c-9.3,0-16.2-1.8-20.6-5.5c-4.4-3.7-6.6-8.7-6.6-14.8c0-2.1,0.3-4.4,0.8-6.9
			c1.3-5.2,3.7-9.8,7.2-13.8c3.6-4.1,8-7.2,13.1-9.4C54.3,275.6,59.9,274.5,65.8,274.5z M65.5,283.4c-1.4,0-2.9,1.3-4.5,3.8
			c-1.5,2.5-3.4,7.2-5.5,14.1c-2.1,6.9-3.2,11.8-3.2,14.6c0,1.5,0.2,2.5,0.7,3c0.5,0.5,1.1,0.7,1.9,0.7c1.4,0.1,2.8-1.1,4.3-3.6
			c1.5-2.5,3.4-7.5,5.7-14.8c2.1-6.5,3.1-11.2,3.1-14.1c0-1.4-0.2-2.4-0.7-2.9C66.9,283.7,66.3,283.4,65.5,283.4z"/>
		<path class="st1" d="M152.1,313.7c-0.1,0.3-0.2,0.7-0.2,1.2c0,0.5,0.1,0.8,0.3,1.1c0.3,0.3,0.6,0.4,1,0.4c0.8,0,1.5-0.3,2-1
			c0.6-0.7,1-1.1,1.2-1.1c0.3,0,0.6,0.2,0.8,0.7c0.2,0.4,0.3,0.9,0.3,1.5c0.1,1.9-0.6,3.8-1.9,5.7c-1.3,1.8-3.3,3.3-5.9,4.5
			c-2.5,1.1-5.6,1.7-9.2,1.7c-4.4,0-7.9-1-10.5-3c-2.6-2.1-3.9-4.8-4-8.2c0-2.5,0.6-5.2,1.8-8.3l5.5-14.4c0.3-0.9,0.5-1.6,0.5-2.1
			c0-0.9-0.3-1.5-0.9-2c-0.5-0.5-1.2-0.8-2-0.8c-1.3,0-2.6,0.6-3.9,1.8c-1.3,1.1-2.3,3-3.1,5.6v-0.2l-6.3,20.3
			c-0.2,0.8-0.3,1.5-0.3,2.1c0,0.9,0.2,1.6,0.5,2.1c0.3,0.5,0.8,0.9,1.4,1.4c0.5,0.5,0.8,0.9,1,1.2c0.2,0.3,0.2,0.6,0.1,1.1
			c-0.3,0.9-1,1.5-2,1.9c-1,0.4-2.5,0.6-4.6,0.6H90.9c-1.7,0-3-0.3-3.8-0.8c-0.8-0.6-1.1-1.4-0.8-2.3c0.3-0.8,1-1.5,2.1-2.1
			c1-0.5,1.8-1.2,2.5-1.9c0.7-0.7,1.2-1.9,1.7-3.5l15.2-50c0.2-0.6,0.3-1.1,0.3-1.5c0-0.7-0.2-1.3-0.6-1.8c-0.3-0.5-0.8-0.9-1.4-1.4
			c-0.7-0.5-1.2-1-1.5-1.4c-0.3-0.4-0.3-0.9-0.1-1.6c0.4-1.5,2.5-2.9,6.3-4c3.8-1.1,7.8-1.7,11.9-1.7c3.9,0,6.7,0.7,8.5,2.2
			c1.9,1.5,2.8,3.5,2.8,6c0,1.5-0.2,2.9-0.7,4.3l-5.4,17.6c2.6-3.4,5.3-5.8,8.2-7.1c2.9-1.3,6.1-2,9.5-2c4.1,0,7.3,1.2,9.8,3.7
			c2.5,2.5,3.8,5.7,3.8,9.6c0,2.1-0.3,4.1-1,6.1L152.1,313.7z"/>
		<path class="st1" d="M257.1,313.7c-0.1,0.3-0.2,0.7-0.2,1.2c0,0.5,0.1,0.8,0.3,1.1c0.3,0.3,0.6,0.4,1,0.4c0.8,0,1.5-0.3,2-1
			c0.6-0.7,1-1.1,1.2-1.1c0.3,0,0.6,0.2,0.8,0.7c0.2,0.4,0.3,0.9,0.3,1.5c0.1,1.9-0.6,3.8-1.9,5.7c-1.3,1.8-3.3,3.3-5.9,4.5
			c-2.5,1.1-5.6,1.7-9.2,1.7c-4.4,0-7.9-1-10.5-3c-2.6-2.1-3.9-4.8-4-8.2c0-2.5,0.6-5.2,1.8-8.3l5.5-14.4c0.3-0.9,0.5-1.6,0.5-2.1
			c0-0.9-0.3-1.5-0.9-2c-0.5-0.5-1.2-0.8-2-0.8c-1.1,0-2.3,0.5-3.5,1.5s-2.3,2.6-3.2,4.7l-5.5,17.9c-0.1,0.3-0.2,0.7-0.2,1.2
			c0,0.5,0.1,0.8,0.3,1.1c0.3,0.3,0.6,0.4,1,0.4c0.8,0,1.5-0.3,2-1c0.6-0.7,1-1.1,1.2-1.1c0.3,0,0.6,0.2,0.8,0.7
			c0.2,0.4,0.3,0.9,0.3,1.5c0.1,1.9-0.6,3.8-1.9,5.7c-1.3,1.8-3.3,3.3-5.9,4.5c-2.5,1.1-5.6,1.7-9.2,1.7c-4.4,0-7.9-1-10.5-3
			c-2.6-2.1-3.9-4.8-4-8.2c0-2.5,0.6-5.2,1.8-8.3l5.5-14.4c0.3-0.9,0.5-1.6,0.5-2.1c0-0.9-0.3-1.5-0.9-2c-0.5-0.5-1.2-0.8-2-0.8
			c-1.1,0-2.3,0.5-3.5,1.5c-1.2,0.9-2.2,2.5-3,4.6l-6.6,21.4c-0.3,0.7-0.4,1.4-0.4,2.1c0,0.8,0.2,1.5,0.5,2c0.3,0.5,0.8,1,1.4,1.5
			c0.5,0.4,0.8,0.8,1,1.1c0.2,0.3,0.2,0.7,0.1,1.2c-0.3,0.9-0.9,1.5-1.9,1.9c-1,0.4-2.6,0.6-4.7,0.6h-22.8c-1.7,0-3-0.3-3.7-0.8
			c-0.8-0.6-1.1-1.4-0.9-2.3c0.3-0.8,1-1.5,2.1-2.1c1-0.5,1.8-1.2,2.5-1.9c0.7-0.7,1.2-1.9,1.7-3.5l8.9-28.9
			c0.1-0.3,0.2-0.8,0.2-1.4c0-0.7-0.2-1.3-0.5-1.7c-0.3-0.4-0.7-0.9-1.4-1.5c-0.7-0.5-1.1-1-1.4-1.4c-0.3-0.4-0.3-0.9-0.1-1.6
			c0.4-1.5,2.5-2.9,6.3-4c3.8-1.2,7.8-1.8,11.9-1.8c3.3,0,5.8,0.9,7.7,2.7c1.9,1.8,2.9,4.3,2.8,7.4c2.7-3.8,5.6-6.4,8.6-7.9
			c3.1-1.5,6.4-2.2,9.9-2.2c3.9,0,7,1.1,9.4,3.4c2.5,2.2,3.8,5.1,4.1,8.7c2.9-4.5,5.9-7.7,9.2-9.4c3.3-1.8,6.8-2.7,10.7-2.7
			c4.1,0,7.3,1.2,9.8,3.7c2.5,2.5,3.8,5.7,3.8,9.6c0,2.1-0.3,4.1-1,6.1L257.1,313.7z"/>
		<path class="st1" d="M318.9,274.5c2.9,0,5.3,1.2,7,3.6c1.8,2.3,2.7,5.5,2.7,9.6c0,3.5-0.6,7.3-1.9,11.4c-2.5,8.2-6.4,16-11.9,23.2
			c-5.4,7.3-11.7,13.1-18.7,17.5c-7,4.4-14,6.6-21,6.6c-3.5,0-6.5-0.6-9-1.8c-2.5-1.2-4.3-2.8-5.6-4.8c-1.3-2-2-4.1-2-6.4
			c0-1,0.2-2.1,0.5-3.3c0.6-1.9,1.6-3.3,3-4.3c1.4-1,3.1-1.5,5-1.5c3.1,0,5.6,1,7.5,3.1c2,2.1,3.3,5,3.8,8.7c4.3-0.2,8.2-2,11.8-5.5
			c-3.4-0.6-5.9-1.7-7.6-3.4c-1.6-1.7-2.7-4.4-3.3-8l-4-24.5c-0.2-1.3-0.5-2.1-0.9-2.6c-0.3-0.5-0.8-0.8-1.4-0.8
			c-0.5,0-1,0.2-1.7,0.7c-0.6,0.5-1,0.7-1.3,0.7c-0.5,0-0.8-0.6-0.8-1.7c0-0.9,0.2-1.9,0.5-3c1.2-3.8,3.4-7,6.7-9.6
			c3.3-2.7,7.1-4,11.4-4c4.3,0,7.4,1.3,9.4,3.8c2.1,2.5,3.4,6.4,4,11.7l3,22c0.2,1.7,0.8,2.5,1.8,2.5c1.2,0,2.6-1.1,4.2-3.2
			c1.6-2.2,3.2-5.3,4.7-9.3c-2-1.8-3.5-3.9-4.6-6.2c-1.1-2.3-1.6-4.8-1.6-7.5c0-2.1,0.3-3.9,0.8-5.6c0.8-2.7,2-4.7,3.7-6
			C314.8,275.2,316.7,274.5,318.9,274.5z"/>
		<path class="st1" d="M368.8,253.5c7.1,0,12.5,1.1,16,3.3c3.6,2.1,5.4,4.8,5.4,7.9c0,2.5-1.1,4.5-3.2,5.9c-2.1,1.3-4.8,2-8.2,2
			c-3.1,0-5.6-0.8-7.3-2.3c-1.7-1.5-2.6-3.4-2.6-5.7c0-1.4,0.4-2.9,1.3-4.4c-2,0-3.7,0.5-5,1.5c-1.3,0.9-2.4,2.6-3.1,4.9
			c-0.4,1.5-0.6,2.8-0.6,4.1c0,1.6,0.3,2.9,0.8,3.8c0.6,0.9,1.4,1.3,2.5,1.3h5.9c3.5,0,5.2,1.1,5.2,3.2c0,0.3-0.1,0.7-0.2,1.2
			c-0.4,1.5-1.2,2.6-2.5,3.3c-1.2,0.7-3,1.1-5.5,1.1h-3l-9.9,32.4c-0.2,0.8-0.3,1.5-0.3,2.1c0,0.9,0.2,1.6,0.5,2.1
			c0.3,0.5,0.8,0.9,1.4,1.4c0.5,0.5,0.8,0.9,1,1.2c0.2,0.3,0.2,0.6,0.1,1.1c-0.3,0.9-1,1.5-2,1.9c-1,0.4-2.5,0.6-4.6,0.6H328
			c-1.7,0-3-0.3-3.8-0.8c-0.8-0.6-1.1-1.4-0.8-2.3c0.3-0.8,1-1.5,2.1-2.1c1-0.5,1.8-1.2,2.5-1.9c0.7-0.7,1.2-1.9,1.7-3.5l7.8-25.6
			c0.3-1,0.5-2,0.5-3.1c0-1.3-0.3-2.4-0.9-3.1c-0.5-0.8-1.4-1.7-2.5-2.6c-0.7-0.6-1.3-1.1-1.7-1.5c-0.3-0.5-0.5-1-0.5-1.6
			c-0.1-1.3,0.4-2.2,1.3-2.7c1-0.5,2.9-0.8,5.6-0.8h2.5c-0.5-1.7-0.7-3.3-0.7-5s0.3-3.4,0.9-5.2c1.3-3.4,4-6.3,8.1-8.6
			C354.3,254.7,360.6,253.5,368.8,253.5z"/>
		<path class="st1" d="M408.3,274.5c9.1,0,15.8,1.8,20,5.5c4.3,3.7,6.5,8.5,6.5,14.4c0,2-0.3,4.2-0.8,6.7
			c-1.3,5.5-3.6,10.3-7.1,14.4c-3.5,4.1-7.7,7.2-12.8,9.5c-5,2.2-10.4,3.3-16.3,3.3c-9.3,0-16.2-1.8-20.6-5.5
			c-4.4-3.7-6.6-8.7-6.6-14.8c0-2.1,0.3-4.4,0.8-6.9c1.3-5.2,3.7-9.8,7.2-13.8c3.6-4.1,8-7.2,13.1-9.4
			C396.9,275.6,402.4,274.5,408.3,274.5z M408,283.4c-1.4,0-2.9,1.3-4.5,3.8c-1.5,2.5-3.4,7.2-5.5,14.1c-2.1,6.9-3.2,11.8-3.2,14.6
			c0,1.5,0.2,2.5,0.7,3c0.5,0.5,1.1,0.7,1.9,0.7c1.4,0.1,2.8-1.1,4.3-3.6c1.5-2.5,3.4-7.5,5.7-14.8c2.1-6.5,3.1-11.2,3.1-14.1
			c0-1.4-0.2-2.4-0.7-2.9C409.4,283.7,408.8,283.4,408,283.4z"/>
		<path class="st1" d="M474,274.5c9.1,0,15.8,1.8,20,5.5c4.3,3.7,6.5,8.5,6.5,14.4c0,2-0.3,4.2-0.8,6.7c-1.3,5.5-3.6,10.3-7.1,14.4
			c-3.5,4.1-7.7,7.2-12.8,9.5c-5,2.2-10.4,3.3-16.3,3.3c-9.3,0-16.2-1.8-20.6-5.5c-4.4-3.7-6.6-8.7-6.6-14.8c0-2.1,0.3-4.4,0.8-6.9
			c1.3-5.2,3.7-9.8,7.2-13.8c3.6-4.1,8-7.2,13.1-9.4C462.6,275.6,468.2,274.5,474,274.5z M473.7,283.4c-1.4,0-2.9,1.3-4.5,3.8
			c-1.5,2.5-3.4,7.2-5.5,14.1c-2.1,6.9-3.2,11.8-3.2,14.6c0,1.5,0.2,2.5,0.7,3c0.5,0.5,1.1,0.7,1.9,0.7c1.4,0.1,2.8-1.1,4.3-3.6
			c1.5-2.5,3.4-7.5,5.7-14.8c2.1-6.5,3.1-11.2,3.1-14.1c0-1.4-0.2-2.4-0.7-2.9C475.1,283.7,474.5,283.4,473.7,283.4z"/>
		<path class="st1" d="M557,313.1c-0.1,0.5-0.2,0.9-0.2,1.1c0,0.5,0.1,0.8,0.4,1.1c0.3,0.3,0.6,0.4,1,0.4c0.8,0,1.5-0.3,2-1
			c0.6-0.7,1-1.1,1.2-1.1c0.3,0,0.6,0.2,0.8,0.7c0.2,0.5,0.3,1,0.3,1.6c0.1,1.8-0.6,3.6-2.1,5.5c-1.4,1.9-3.3,3.4-5.7,4.6
			c-2.4,1.2-5,1.8-7.8,1.8c-3.3,0-6.2-0.6-8.7-1.9c-2.5-1.3-4.2-2.9-5.1-5c-1.8,2.3-3.9,4.1-6.2,5.2c-2.3,1.1-4.8,1.7-7.4,1.7
			c-3.1,0-5.9-0.8-8.6-2.3c-2.6-1.5-4.7-3.7-6.3-6.5c-1.5-2.9-2.3-6.1-2.3-9.7c0-6.1,1.1-11.8,3.4-17.1c2.3-5.4,5.6-9.7,9.7-13
			c4.1-3.3,8.8-5,14.1-5c2.9,0,5.3,0.3,7.3,1c2.1,0.7,3.9,1.7,5.6,3l3.4-11.2c0.2-0.6,0.3-1.1,0.3-1.5c0-0.7-0.2-1.3-0.6-1.8
			c-0.3-0.5-0.8-0.9-1.4-1.4c-0.7-0.5-1.2-1-1.5-1.4c-0.3-0.4-0.3-0.9-0.1-1.6c0.4-1.5,2.5-2.9,6.3-4c3.8-1.1,7.8-1.7,11.9-1.7
			c3.9,0,6.7,0.7,8.5,2.2c1.9,1.5,2.8,3.5,2.8,6c0,1.5-0.2,2.9-0.7,4.3L557,313.1z M540.3,284.9c-1.1-0.9-2.2-1.4-3.5-1.4
			c-1.9,0-3.8,1.4-5.7,4.3c-1.9,2.9-3.4,6.3-4.5,10.4c-1.1,4.1-1.7,7.7-1.6,11c0,3.7,1.2,5.5,3.6,5.5c0.9,0,1.6-0.3,2.2-1
			c0.6-0.7,1.2-1.9,1.7-3.5L540.3,284.9z"/>
	</g>
</g>
</svg>
